<?xml version="1.0" encoding="utf-8"?>
<!-- Generator: Adobe Illustrator 16.0.3, SVG Export Plug-In . SVG Version: 6.00 Build 0)  -->
<!DOCTYPE svg PUBLIC "-//W3C//DTD SVG 1.1//EN" "http://www.w3.org/Graphics/SVG/1.1/DTD/svg11.dtd">
<svg version="1.1" id="Layer_1" xmlns="http://www.w3.org/2000/svg" xmlns:xlink="http://www.w3.org/1999/xlink" x="0px" y="0px"
	 width="461.5px" height="164.3px" viewBox="0 0 461.5 164.3" style="enable-background:new 0 0 461.5 164.3;" xml:space="preserve"
	>
<style type="text/css">
<![CDATA[
	.st0{clip-path:url(#SVGID_6_);fill:#A4D288;}
	.st1{fill:#5E5343;}
	.st2{fill:#3A9C4A;}
	.st3{clip-path:url(#SVGID_4_);fill:#68BD4F;}
	.st4{clip-path:url(#SVGID_2_);fill:#3A9C4A;}
]]>
</style>
<g>
	<g>
		<g>
			<polygon class="st1" points="28.5,158.2 8,129.5 0,129.5 0,164.3 5.5,164.3 5.5,134.8 26.5,164.3 30.3,164.3 51.3,134.8 
				51.3,164.3 56.7,164.3 56.7,129.5 49,129.5 			"/>
			<path class="st1" d="M107.5,132.3c-1.9-1.8-5.2-2.8-10.2-3.2c-0.9,0-4.2-0.1-10-0.1c-6.2,0-9.5,0-10.2,0.1
				c-5.2,0.3-8.6,1.4-10.5,3.2c-1.6,1.5-2.6,3.8-2.9,7c-0.1,1.1-0.2,3.7-0.2,7.5c0,3.8,0.1,6.3,0.2,7.4c0.4,3.2,1.4,5.6,2.9,7.1
				c1.9,1.8,5.3,2.8,10.3,3.1c0.7,0.1,3.5,0.1,10.1,0.1c6.6,0,9.4,0,10.1-0.1c5.1-0.4,8.4-1.4,10.3-3.1c1.6-1.5,2.6-3.8,2.9-7.1
				c0.1-1.1,0.2-3.5,0.2-7.5c0-3.9-0.1-6.4-0.2-7.5C110.1,136.1,109.1,133.8,107.5,132.3z M87.1,160.1c-5,0-7.8,0-8.1,0
				c-4.3-0.2-7-0.9-8.1-1.9c-0.6-0.6-1.4-1.9-1.6-5.3c-0.1-0.9-0.1-2.9-0.1-6c0-3.1,0-5.1,0.1-6c0.2-2.7,0.8-4.5,1.6-5.3
				c0.7-0.7,2.7-1.6,8.2-1.9c0.7,0,2.8,0,8.2,0c4.8,0,7.1,0,8,0.1c5.3,0.3,7.2,1.2,7.9,1.9c0.9,0.8,1.4,2.6,1.7,5.3
				c0.1,0.9,0.1,3,0.1,6c0,3,0,5-0.1,6c-0.2,2.7-0.8,4.5-1.6,5.3c-1.1,1.1-3.8,1.7-8.1,1.9C94.9,160.1,92.1,160.1,87.1,160.1z"/>
			<polygon class="st1" points="156.4,159.7 125.3,129.5 117.4,129.5 117.4,164.3 122.8,164.3 122.8,134.1 153.9,164.3 161.8,164.3 
				161.8,129.5 156.4,129.5 			"/>
			<polygon class="st1" points="174.9,148.3 202.9,148.3 202.9,144.1 174.9,144.1 174.9,133.9 204.1,133.9 204.1,129.5 169.4,129.5 
				169.4,164.3 204.4,164.3 204.4,159.9 174.9,159.9 			"/>
			<polygon class="st1" points="252.4,129.5 233.7,145.6 214.2,129.5 206.5,129.5 231,149.8 231,164.3 236.5,164.3 236.5,149.8 
				260,129.5 			"/>
		</g>
		<g>
			<path class="st2" d="M299.5,129.7c-1.1-0.2-2.8-0.2-5.3-0.2h-31.3v34.8h5.5V151h26.9c3.8,0,6.7-0.7,8.5-2c1.4-1,2.3-2.4,2.8-4.2
				c0.3-1.1,0.4-2.7,0.4-4.8c0-3.9-0.8-6.6-2.3-8.1C303.3,130.7,301.6,130,299.5,129.7z M268.3,133.9h24.4c4,0,6.5,0.6,7.4,1.9
				c0.6,0.8,1,2.3,1,4.5c0,2.8-0.7,4.6-2.2,5.4c-1.1,0.6-3.5,0.9-7.1,0.9h-23.5V133.9z"/>
			<path class="st2" d="M359.4,132.3c-1.9-1.8-5.2-2.8-10.2-3.2c-0.8,0-4.8-0.1-10.8-0.1c-6.9,0-12.1,0-12.7,0.1
				c-5.2,0.3-8.6,1.4-10.5,3.2c-1.6,1.5-2.6,3.8-2.9,7c-0.1,1.1-0.2,3.6-0.2,7.5c0,3.9,0.1,6.4,0.2,7.4c0.4,3.2,1.4,5.6,2.9,7.1
				c1.9,1.8,5.3,2.8,10.3,3.1c0.8,0.1,7.3,0.1,12.6,0.1c6.9,0,10.3,0,10.9-0.1c5.1-0.4,8.4-1.4,10.3-3.1c1.6-1.5,2.5-3.8,2.9-7.1
				c0.1-1.1,0.2-3.5,0.2-7.5c0-3.9-0.1-6.4-0.2-7.5C361.9,136.1,361,133.8,359.4,132.3z M338.1,160.1c-2.5,0-10.2,0-10.6,0
				c-4.2-0.2-7-0.8-8.1-1.9c-0.9-0.8-1.4-2.7-1.6-5.3c-0.1-0.9-0.1-2.8-0.1-6c0-3.2,0-5.1,0.1-6c0.2-2.7,0.8-4.5,1.6-5.3
				c0.7-0.7,2.8-1.6,8.2-1.9c0.7,0,5.6,0,10.7,0c4.8,0,7.9,0,8.8,0.1c5.3,0.3,7.2,1.2,7.9,1.9c0.9,0.8,1.4,2.6,1.7,5.3
				c0.1,0.9,0.1,2.8,0.1,6c0,3.1,0,5-0.1,6c-0.2,2.6-0.8,4.5-1.6,5.3c-1.1,1.1-3.8,1.7-8.1,1.9C346.7,160.1,342.3,160.1,338.1,160.1
				z"/>
			<polygon class="st2" points="374.7,129.5 369.3,129.5 369.3,164.3 406.7,164.3 406.7,159.9 374.7,159.9 			"/>
			<path class="st2" d="M461.4,139.4c-0.4-3.3-1.4-5.6-2.9-7c-1.9-1.8-5.2-2.8-10.2-3.2c-0.8,0-5.9-0.1-12.5-0.1
				c-6.7,0-11.2,0-11.9,0.1c-5.2,0.4-8.6,1.4-10.5,3.2c-1.6,1.5-2.6,3.8-2.9,7c-0.1,1.1-0.2,3.6-0.2,7.5c0,3.8,0.1,6.3,0.2,7.4
				c0.4,3.2,1.4,5.6,2.9,7.1c1.9,1.8,5.3,2.8,10.3,3.1c0.6,0.1,4.5,0.1,11.8,0.1c5.3,0,11.8,0,12.6-0.1c5-0.3,8.5-1.4,10.3-3.1
				c1.6-1.5,2.5-3.8,2.9-7.1c0.1-1.1,0.2-3.7,0.2-7.5C461.5,143.1,461.5,140.5,461.4,139.4z M435.5,160.1c-2.8,0-9.4,0-9.8,0
				c-4.2-0.2-7-0.8-8.1-1.9c-0.9-0.8-1.4-2.6-1.6-5.3c-0.1-1-0.1-3-0.1-6c0-3,0-5,0.1-6c0.2-2.7,0.8-4.5,1.6-5.3
				c0.7-0.7,2.7-1.6,8.2-1.9c0.8,0,5.3,0,9.9,0c5.3,0,9.6,0,10.4,0.1c5.3,0.3,7.2,1.2,7.9,1.9c0.9,0.8,1.4,2.6,1.7,5.3
				c0.1,1,0.1,3.1,0.1,6c0,3,0,5-0.1,6c-0.2,2.7-0.8,4.5-1.7,5.3c-1.1,1.1-3.8,1.7-8.1,1.9C445.6,160.1,438,160.1,435.5,160.1z"/>
		</g>
		<g>
			<defs>
				<polygon id="SVGID_1_" points="234.1,84.3 183.5,49.5 183.5,72.6 234.1,107.4 284.8,72.6 284.8,49.5 				"/>
			</defs>
			<use xlink:href="#SVGID_1_"  style="overflow:visible;fill:#3A9C4A;"/>
			<clipPath id="SVGID_2_">
				<use xlink:href="#SVGID_1_"  style="overflow:visible;"/>
			</clipPath>
			<rect x="183.5" y="49.5" class="st4" width="101.3" height="57.9"/>
		</g>
		<g>
			<defs>
				<polygon id="SVGID_3_" points="234.1,59.5 183.5,24.7 183.5,47.9 234.1,82.7 284.8,47.9 284.8,24.7 				"/>
			</defs>
			<use xlink:href="#SVGID_3_"  style="overflow:visible;fill:#68BD4F;"/>
			<clipPath id="SVGID_4_">
				<use xlink:href="#SVGID_3_"  style="overflow:visible;"/>
			</clipPath>
			<rect x="183.5" y="24.7" class="st3" width="101.3" height="57.9"/>
		</g>
		<g>
			<defs>
				<polygon id="SVGID_5_" points="234.1,34.8 183.5,0 183.5,23.2 234.1,57.9 284.8,23.2 284.8,0 				"/>
			</defs>
			<use xlink:href="#SVGID_5_"  style="overflow:visible;fill:#A4D288;"/>
			<clipPath id="SVGID_6_">
				<use xlink:href="#SVGID_5_"  style="overflow:visible;"/>
			</clipPath>
			<rect x="183.5" class="st0" width="101.3" height="57.9"/>
		</g>
	</g>
</g>
</svg>
